<svg width="265" height="265" viewBox="0 0 265 265" fill="none" xmlns="http://www.w3.org/2000/svg">
<rect width="265" height="265" fill="#F5F5F5"/>
<rect x="25" y="25" width="240" height="240" fill="#00BEFF"/>
<path d="M1.5 26.5H26.5V263.5H1.5V26.5Z" fill="#D9D9D9" stroke="#00BEFF" stroke-width="3"/>
<path d="M0 0H25V25H0V0Z" fill="#D9D9D9"/>
<rect x="1.49779" y="-1.50039" width="24.9974" height="236.959" transform="matrix(-0.00147547 -0.999999 1 -0.000264224 28.0418 28.0577)" fill="#D9D9D9" stroke="#00BEFF" stroke-width="3"/>
<rect width="11.497" height="4" transform="matrix(1 -0.000273074 0.00145024 0.999999 87.4124 0.0463562)" fill="#D9D9D9"/>
<rect width="11.497" height="4" transform="matrix(1 -0.000273074 0.00145024 0.999999 159.679 0.0265961)" fill="#D9D9D9"/>
<rect width="11.497" height="4" transform="matrix(1 -0.000273074 0.00145024 0.999999 231.946 0.00688171)" fill="#D9D9D9"/>
<path d="M244 11.0004L264.983 10.9973L264.988 14.9973L244.006 15.0004L244 11.0004Z" fill="#D9D9D9"/>
<rect width="11.497" height="4" transform="matrix(1 -0.000273074 0.00145024 0.999999 195.813 0.0167389)" fill="#D9D9D9"/>
<rect width="11.497" height="4" transform="matrix(1 -0.000273074 0.00145024 0.999999 123.546 0.0364838)" fill="#D9D9D9"/>
<rect width="11.497" height="4" transform="matrix(1 -0.000273074 0.00145024 0.999999 51.2789 0.0562134)" fill="#D9D9D9"/>
<rect width="17.995" height="4.00168" transform="matrix(1 -0.000264283 0.00145978 0.999999 25.0002 11.003)" fill="#D9D9D9"/>
</svg>
