<svg width="176" height="100" viewBox="0 0 176 100" fill="none" xmlns="http://www.w3.org/2000/svg">
<rect width="176" height="100" fill="#F5F5F5"/>
<rect x="26" y="25" width="150" height="75" fill="#00BEFF"/>
<rect x="26.5" y="26.5" width="25" height="148" transform="rotate(-90 26.5 26.5)" fill="#D3D3D3" stroke="#00BEFF" stroke-width="3"/>
<rect x="-1.50081" y="-1.49976" width="24.9973" height="71.9996" transform="matrix(-1 0.000158246 -0.000542658 -1 25.0356 97.0003)" fill="#D3D3D3" stroke="#00BEFF" stroke-width="3"/>
<path d="M90.767 16.9545V15.017L95.625 7.36364H97.2955V10.0455H96.3068L93.2443 14.892V14.983H100.148V16.9545H90.767ZM96.3523 19V16.3636L96.3977 15.5057V7.36364H98.7045V19H96.3523Z" fill="black"/>
<path d="M9.63068 67L6.30114 55.3636H8.98864L10.9148 63.4489H11.0114L13.1364 55.3636H15.4375L17.5568 63.4659H17.6591L19.5852 55.3636H22.2727L18.9432 67H16.5455L14.3295 59.392H14.2386L12.0284 67H9.63068Z" fill="black"/>
<path d="M65.8864 68H64.4091L68.6818 56.3636H70.1364L74.4091 68H72.9318L69.4545 58.2045H69.3636L65.8864 68ZM66.4318 63.4545H72.3864V64.7045H66.4318V63.4545ZM76.0398 68V59.2727H77.3352V60.5909H77.4261C77.5852 60.1591 77.8731 59.8087 78.2898 59.5398C78.7064 59.2708 79.1761 59.1364 79.6989 59.1364C79.7973 59.1364 79.9205 59.1383 80.0682 59.142C80.2159 59.1458 80.3277 59.1515 80.4034 59.1591V60.5227C80.358 60.5114 80.2538 60.4943 80.0909 60.4716C79.9318 60.4451 79.7633 60.4318 79.5852 60.4318C79.161 60.4318 78.7822 60.5208 78.4489 60.6989C78.1193 60.8731 77.858 61.1155 77.6648 61.4261C77.4754 61.733 77.3807 62.0833 77.3807 62.4773V68H76.0398ZM85.3864 68.1818C84.5455 68.1818 83.8201 67.9962 83.2102 67.625C82.6042 67.25 82.1364 66.7273 81.8068 66.0568C81.4811 65.3826 81.3182 64.5985 81.3182 63.7045C81.3182 62.8106 81.4811 62.0227 81.8068 61.3409C82.1364 60.6553 82.5947 60.1212 83.1818 59.7386C83.7727 59.3523 84.4621 59.1591 85.25 59.1591C85.7045 59.1591 86.1534 59.2348 86.5966 59.3864C87.0398 59.5379 87.4432 59.7841 87.8068 60.125C88.1705 60.4621 88.4602 60.9091 88.6761 61.4659C88.892 62.0227 89 62.7083 89 63.5227V64.0909H82.2727V62.9318H87.6364C87.6364 62.4394 87.5379 62 87.3409 61.6136C87.1477 61.2273 86.8712 60.9223 86.5114 60.6989C86.1553 60.4754 85.7348 60.3636 85.25 60.3636C84.7159 60.3636 84.2538 60.4962 83.8636 60.7614C83.4773 61.0227 83.1799 61.3636 82.9716 61.7841C82.7633 62.2045 82.6591 62.6553 82.6591 63.1364V63.9091C82.6591 64.5682 82.7727 65.1269 83 65.5852C83.2311 66.0398 83.5511 66.3864 83.9602 66.625C84.3693 66.8598 84.8447 66.9773 85.3864 66.9773C85.7386 66.9773 86.0568 66.928 86.3409 66.8295C86.6288 66.7273 86.8769 66.5758 87.0852 66.375C87.2936 66.1705 87.4545 65.9167 87.5682 65.6136L88.8636 65.9773C88.7273 66.4167 88.4981 66.803 88.1761 67.1364C87.8542 67.4659 87.4564 67.7235 86.983 67.9091C86.5095 68.0909 85.9773 68.1818 85.3864 68.1818ZM93.608 68.2045C93.0549 68.2045 92.553 68.1004 92.1023 67.892C91.6515 67.6799 91.2936 67.375 91.0284 66.9773C90.7633 66.5758 90.6307 66.0909 90.6307 65.5227C90.6307 65.0227 90.7292 64.6174 90.9261 64.3068C91.1231 63.9924 91.3864 63.7462 91.7159 63.5682C92.0455 63.3902 92.4091 63.2576 92.8068 63.1705C93.2083 63.0795 93.6117 63.0076 94.017 62.9545C94.5473 62.8864 94.9773 62.8352 95.3068 62.8011C95.6402 62.7633 95.8826 62.7008 96.0341 62.6136C96.1894 62.5265 96.267 62.375 96.267 62.1591V62.1136C96.267 61.553 96.1136 61.1174 95.8068 60.8068C95.5038 60.4962 95.0436 60.3409 94.4261 60.3409C93.786 60.3409 93.2841 60.4811 92.9205 60.7614C92.5568 61.0417 92.3011 61.3409 92.1534 61.6591L90.8807 61.2045C91.108 60.6742 91.411 60.2614 91.7898 59.9659C92.1723 59.6667 92.589 59.4583 93.0398 59.3409C93.4943 59.2197 93.9413 59.1591 94.3807 59.1591C94.661 59.1591 94.983 59.1932 95.3466 59.2614C95.714 59.3258 96.0682 59.4602 96.4091 59.6648C96.7538 59.8693 97.0398 60.178 97.267 60.5909C97.4943 61.0038 97.608 61.5568 97.608 62.25V68H96.267V66.8182H96.1989C96.108 67.0076 95.9564 67.2102 95.7443 67.4261C95.5322 67.642 95.25 67.8258 94.8977 67.9773C94.5455 68.1288 94.1155 68.2045 93.608 68.2045ZM93.8125 67C94.3428 67 94.7898 66.8958 95.1534 66.6875C95.5208 66.4792 95.7973 66.2102 95.983 65.8807C96.1723 65.5511 96.267 65.2045 96.267 64.8409V63.6136C96.2102 63.6818 96.0852 63.7443 95.892 63.8011C95.7027 63.8542 95.483 63.9015 95.233 63.9432C94.9867 63.9811 94.7462 64.0152 94.5114 64.0455C94.2803 64.072 94.0928 64.0947 93.9489 64.1136C93.6004 64.1591 93.2746 64.233 92.9716 64.3352C92.6723 64.4337 92.4299 64.5833 92.2443 64.7841C92.0625 64.9811 91.9716 65.25 91.9716 65.5909C91.9716 66.0568 92.1439 66.4091 92.4886 66.6477C92.8371 66.8826 93.2784 67 93.8125 67ZM105.101 61.1136V59.8864H112.101V61.1136H105.101ZM105.101 64.4773V63.25H112.101V64.4773H105.101ZM123.307 68.1591C122.527 68.1591 121.837 68.0208 121.239 67.7443C120.644 67.464 120.18 67.0795 119.847 66.5909C119.513 66.0985 119.348 65.5379 119.352 64.9091C119.348 64.4167 119.445 63.9621 119.642 63.5455C119.839 63.125 120.108 62.7746 120.449 62.4943C120.794 62.2102 121.178 62.0303 121.602 61.9545V61.8864C121.045 61.7424 120.602 61.4299 120.273 60.9489C119.943 60.464 119.78 59.9129 119.784 59.2955C119.78 58.7045 119.93 58.1761 120.233 57.7102C120.536 57.2443 120.953 56.8769 121.483 56.608C122.017 56.339 122.625 56.2045 123.307 56.2045C123.981 56.2045 124.583 56.339 125.114 56.608C125.644 56.8769 126.061 57.2443 126.364 57.7102C126.67 58.1761 126.826 58.7045 126.83 59.2955C126.826 59.9129 126.657 60.464 126.324 60.9489C125.994 61.4299 125.557 61.7424 125.011 61.8864V61.9545C125.432 62.0303 125.811 62.2102 126.148 62.4943C126.485 62.7746 126.754 63.125 126.955 63.5455C127.155 63.9621 127.258 64.4167 127.261 64.9091C127.258 65.5379 127.087 66.0985 126.75 66.5909C126.417 67.0795 125.953 67.464 125.358 67.7443C124.767 68.0208 124.083 68.1591 123.307 68.1591ZM123.307 66.9091C123.833 66.9091 124.288 66.8239 124.67 66.6534C125.053 66.483 125.348 66.2424 125.557 65.9318C125.765 65.6212 125.871 65.2576 125.875 64.8409C125.871 64.4015 125.758 64.0133 125.534 63.6761C125.311 63.339 125.006 63.0739 124.619 62.8807C124.237 62.6875 123.799 62.5909 123.307 62.5909C122.811 62.5909 122.367 62.6875 121.977 62.8807C121.591 63.0739 121.286 63.339 121.062 63.6761C120.843 64.0133 120.735 64.4015 120.739 64.8409C120.735 65.2576 120.835 65.6212 121.04 65.9318C121.248 66.2424 121.545 66.483 121.932 66.6534C122.318 66.8239 122.777 66.9091 123.307 66.9091ZM123.307 61.3864C123.723 61.3864 124.093 61.303 124.415 61.1364C124.741 60.9697 124.996 60.7367 125.182 60.4375C125.367 60.1383 125.462 59.7879 125.466 59.3864C125.462 58.9924 125.369 58.6496 125.188 58.358C125.006 58.0625 124.754 57.8352 124.432 57.6761C124.11 57.5133 123.735 57.4318 123.307 57.4318C122.871 57.4318 122.491 57.5133 122.165 57.6761C121.839 57.8352 121.587 58.0625 121.409 58.358C121.231 58.6496 121.144 58.9924 121.148 59.3864C121.144 59.7879 121.233 60.1383 121.415 60.4375C121.6 60.7367 121.856 60.9697 122.182 61.1364C122.508 61.303 122.883 61.3864 123.307 61.3864Z" fill="black"/>
<rect width="25" height="25" fill="#D3D3D3"/>
<rect width="3.59342" height="4" transform="matrix(-0.000570846 -1 1 -0.000150432 0.029541 80.4969)" fill="#D9D9D9"/>
<rect width="3.59342" height="4" transform="matrix(-0.000570846 -1 1 -0.000150432 0.0166321 57.9097)" fill="#D9D9D9"/>
<rect width="3.59342" height="4" transform="matrix(-0.000570846 -1 1 -0.000150432 0.00375366 35.3225)" fill="#D9D9D9"/>
<rect width="3.59342" height="4" transform="matrix(-0.000570846 -1 1 -0.000150432 10.9994 28.594)" fill="#D9D9D9"/>
<rect width="3.59342" height="4" transform="matrix(-0.000570846 -1 1 -0.000150432 0.0101929 46.6161)" fill="#D9D9D9"/>
<rect width="3.59342" height="4" transform="matrix(-0.000570846 -1 1 -0.000150432 0.0231018 69.2034)" fill="#D9D9D9"/>
<rect width="3.59342" height="4" transform="matrix(-0.000570846 -1 1 -0.000150432 0.0359802 91.7906)" fill="#D9D9D9"/>
<rect width="3.59342" height="4" transform="matrix(-0.00052345 -1 1 -0.000164053 10.0407 100.002)" fill="#D9D9D9"/>
</svg>
