<svg width="65" height="205" viewBox="0 0 65 205" fill="none" xmlns="http://www.w3.org/2000/svg">
<rect width="65" height="205" fill="#F5F5F5"/>
<rect y="25" width="40" height="180" fill="#00BEFF"/>
<rect x="38.5" y="26.5" width="25" height="177" fill="#D3D3D3" stroke="#00BEFF" stroke-width="3"/>
<rect x="1.49963" y="-1.50238" width="24.9973" height="36.9932" transform="matrix(-0.000245874 -1 0.999999 -0.00158558 3.00924 28.0556)" fill="#D3D3D3" stroke="#00BEFF" stroke-width="3"/>
<path d="M51.1534 108.205C51.7519 108.205 52.3277 108.305 52.8807 108.506C53.4375 108.706 53.9337 109.027 54.3693 109.466C54.8087 109.905 55.1553 110.489 55.4091 111.216C55.6667 111.939 55.7973 112.828 55.8011 113.881C55.8011 114.869 55.6894 115.752 55.4659 116.528C55.2462 117.301 54.9299 117.958 54.517 118.5C54.1042 119.042 53.6061 119.455 53.0227 119.739C52.4394 120.019 51.7879 120.159 51.0682 120.159C50.2917 120.159 49.6061 120.009 49.0114 119.71C48.4167 119.407 47.9375 118.996 47.5739 118.477C47.214 117.955 46.9962 117.367 46.9205 116.716H49.3466C49.4413 117.14 49.6402 117.47 49.9432 117.705C50.2462 117.936 50.6212 118.051 51.0682 118.051C51.8258 118.051 52.4015 117.722 52.7955 117.062C53.1894 116.4 53.3883 115.492 53.392 114.341H53.3125C53.1383 114.682 52.9034 114.975 52.608 115.222C52.3125 115.464 51.9735 115.652 51.5909 115.784C51.2121 115.917 50.8087 115.983 50.3807 115.983C49.6951 115.983 49.0833 115.822 48.5455 115.5C48.0076 115.178 47.5833 114.735 47.2727 114.17C46.9621 113.606 46.8068 112.962 46.8068 112.239C46.803 111.458 46.983 110.763 47.3466 110.153C47.7102 109.544 48.2178 109.066 48.8693 108.722C49.5246 108.373 50.286 108.201 51.1534 108.205ZM51.1705 110.136C50.7879 110.136 50.447 110.227 50.1477 110.409C49.8523 110.591 49.6174 110.835 49.4432 111.142C49.2727 111.449 49.1894 111.792 49.1932 112.17C49.1932 112.553 49.2765 112.898 49.4432 113.205C49.6136 113.508 49.8447 113.75 50.1364 113.932C50.4318 114.11 50.7689 114.199 51.1477 114.199C51.4318 114.199 51.6951 114.146 51.9375 114.04C52.1799 113.934 52.3902 113.788 52.5682 113.602C52.75 113.413 52.892 113.195 52.9943 112.949C53.0966 112.703 53.1477 112.441 53.1477 112.165C53.1439 111.797 53.0568 111.46 52.8864 111.153C52.7159 110.847 52.4811 110.6 52.1818 110.415C51.8826 110.229 51.5455 110.136 51.1705 110.136Z" fill="black"/>
<path d="M15.6307 21L12.3011 9.36364H14.9886L16.9148 17.4489H17.0114L19.1364 9.36364H21.4375L23.5568 17.4659H23.6591L25.5852 9.36364H28.2727L24.9432 21H22.5455L20.3295 13.392H20.2386L18.0284 21H15.6307Z" fill="black"/>
<path d="M14.8864 69H13.4091L17.6818 57.3636H19.1364L23.4091 69H21.9318L18.4545 59.2045H18.3636L14.8864 69ZM15.4318 64.4545H21.3864V65.7045H15.4318V64.4545ZM14.2273 88V79.2727H15.5227V80.5909H15.6136C15.7727 80.1591 16.0606 79.8087 16.4773 79.5398C16.8939 79.2708 17.3636 79.1364 17.8864 79.1364C17.9848 79.1364 18.108 79.1383 18.2557 79.142C18.4034 79.1458 18.5152 79.1515 18.5909 79.1591V80.5227C18.5455 80.5114 18.4413 80.4943 18.2784 80.4716C18.1193 80.4451 17.9508 80.4318 17.7727 80.4318C17.3485 80.4318 16.9697 80.5208 16.6364 80.6989C16.3068 80.8731 16.0455 81.1155 15.8523 81.4261C15.6629 81.733 15.5682 82.0833 15.5682 82.4773V88H14.2273ZM17.8864 107.182C17.0455 107.182 16.3201 106.996 15.7102 106.625C15.1042 106.25 14.6364 105.727 14.3068 105.057C13.9811 104.383 13.8182 103.598 13.8182 102.705C13.8182 101.811 13.9811 101.023 14.3068 100.341C14.6364 99.6553 15.0947 99.1212 15.6818 98.7386C16.2727 98.3523 16.9621 98.1591 17.75 98.1591C18.2045 98.1591 18.6534 98.2348 19.0966 98.3864C19.5398 98.5379 19.9432 98.7841 20.3068 99.125C20.6705 99.4621 20.9602 99.9091 21.1761 100.466C21.392 101.023 21.5 101.708 21.5 102.523V103.091H14.7727V101.932H20.1364C20.1364 101.439 20.0379 101 19.8409 100.614C19.6477 100.227 19.3712 99.9223 19.0114 99.6989C18.6553 99.4754 18.2348 99.3636 17.75 99.3636C17.2159 99.3636 16.7538 99.4962 16.3636 99.7614C15.9773 100.023 15.6799 100.364 15.4716 100.784C15.2633 101.205 15.1591 101.655 15.1591 102.136V102.909C15.1591 103.568 15.2727 104.127 15.5 104.585C15.7311 105.04 16.0511 105.386 16.4602 105.625C16.8693 105.86 17.3447 105.977 17.8864 105.977C18.2386 105.977 18.5568 105.928 18.8409 105.83C19.1288 105.727 19.3769 105.576 19.5852 105.375C19.7936 105.17 19.9545 104.917 20.0682 104.614L21.3636 104.977C21.2273 105.417 20.9981 105.803 20.6761 106.136C20.3542 106.466 19.9564 106.723 19.483 106.909C19.0095 107.091 18.4773 107.182 17.8864 107.182ZM16.7955 126.205C16.2424 126.205 15.7405 126.1 15.2898 125.892C14.839 125.68 14.4811 125.375 14.2159 124.977C13.9508 124.576 13.8182 124.091 13.8182 123.523C13.8182 123.023 13.9167 122.617 14.1136 122.307C14.3106 121.992 14.5739 121.746 14.9034 121.568C15.233 121.39 15.5966 121.258 15.9943 121.17C16.3958 121.08 16.7992 121.008 17.2045 120.955C17.7348 120.886 18.1648 120.835 18.4943 120.801C18.8277 120.763 19.0701 120.701 19.2216 120.614C19.3769 120.527 19.4545 120.375 19.4545 120.159V120.114C19.4545 119.553 19.3011 119.117 18.9943 118.807C18.6913 118.496 18.2311 118.341 17.6136 118.341C16.9735 118.341 16.4716 118.481 16.108 118.761C15.7443 119.042 15.4886 119.341 15.3409 119.659L14.0682 119.205C14.2955 118.674 14.5985 118.261 14.9773 117.966C15.3598 117.667 15.7765 117.458 16.2273 117.341C16.6818 117.22 17.1288 117.159 17.5682 117.159C17.8485 117.159 18.1705 117.193 18.5341 117.261C18.9015 117.326 19.2557 117.46 19.5966 117.665C19.9413 117.869 20.2273 118.178 20.4545 118.591C20.6818 119.004 20.7955 119.557 20.7955 120.25V126H19.4545V124.818H19.3864C19.2955 125.008 19.1439 125.21 18.9318 125.426C18.7197 125.642 18.4375 125.826 18.0852 125.977C17.733 126.129 17.303 126.205 16.7955 126.205ZM17 125C17.5303 125 17.9773 124.896 18.3409 124.688C18.7083 124.479 18.9848 124.21 19.1705 123.881C19.3598 123.551 19.4545 123.205 19.4545 122.841V121.614C19.3977 121.682 19.2727 121.744 19.0795 121.801C18.8902 121.854 18.6705 121.902 18.4205 121.943C18.1742 121.981 17.9337 122.015 17.6989 122.045C17.4678 122.072 17.2803 122.095 17.1364 122.114C16.7879 122.159 16.4621 122.233 16.1591 122.335C15.8598 122.434 15.6174 122.583 15.4318 122.784C15.25 122.981 15.1591 123.25 15.1591 123.591C15.1591 124.057 15.3314 124.409 15.6761 124.648C16.0246 124.883 16.4659 125 17 125ZM14.7727 139.386V138.159H21.7727V139.386H14.7727ZM14.7727 142.75V141.523H21.7727V142.75H14.7727Z" fill="black"/>
<path d="M16.2955 154.364V166H14.8864V155.841H14.8182L11.9773 157.727V156.295L14.8864 154.364H16.2955ZM23.3693 166.159C22.589 166.159 21.8996 166.021 21.3011 165.744C20.7064 165.464 20.2424 165.08 19.9091 164.591C19.5758 164.098 19.411 163.538 19.4148 162.909C19.411 162.417 19.5076 161.962 19.7045 161.545C19.9015 161.125 20.1705 160.775 20.5114 160.494C20.8561 160.21 21.2405 160.03 21.6648 159.955V159.886C21.108 159.742 20.6648 159.43 20.3352 158.949C20.0057 158.464 19.8428 157.913 19.8466 157.295C19.8428 156.705 19.9924 156.176 20.2955 155.71C20.5985 155.244 21.0152 154.877 21.5455 154.608C22.0795 154.339 22.6875 154.205 23.3693 154.205C24.0436 154.205 24.6458 154.339 25.1761 154.608C25.7064 154.877 26.1231 155.244 26.4261 155.71C26.733 156.176 26.8883 156.705 26.892 157.295C26.8883 157.913 26.7197 158.464 26.3864 158.949C26.0568 159.43 25.6193 159.742 25.0739 159.886V159.955C25.4943 160.03 25.8731 160.21 26.2102 160.494C26.5473 160.775 26.8163 161.125 27.017 161.545C27.2178 161.962 27.3201 162.417 27.3239 162.909C27.3201 163.538 27.1496 164.098 26.8125 164.591C26.4792 165.08 26.0152 165.464 25.4205 165.744C24.8295 166.021 24.1458 166.159 23.3693 166.159ZM23.3693 164.909C23.8958 164.909 24.3504 164.824 24.733 164.653C25.1155 164.483 25.411 164.242 25.6193 163.932C25.8277 163.621 25.9337 163.258 25.9375 162.841C25.9337 162.402 25.8201 162.013 25.5966 161.676C25.3731 161.339 25.0682 161.074 24.6818 160.881C24.2992 160.687 23.8617 160.591 23.3693 160.591C22.8731 160.591 22.4299 160.687 22.0398 160.881C21.6534 161.074 21.3485 161.339 21.125 161.676C20.9053 162.013 20.7973 162.402 20.8011 162.841C20.7973 163.258 20.8977 163.621 21.1023 163.932C21.3106 164.242 21.608 164.483 21.9943 164.653C22.3807 164.824 22.839 164.909 23.3693 164.909ZM23.3693 159.386C23.786 159.386 24.1553 159.303 24.4773 159.136C24.803 158.97 25.0587 158.737 25.2443 158.438C25.4299 158.138 25.5246 157.788 25.5284 157.386C25.5246 156.992 25.4318 156.65 25.25 156.358C25.0682 156.062 24.8163 155.835 24.4943 155.676C24.1723 155.513 23.7973 155.432 23.3693 155.432C22.9337 155.432 22.553 155.513 22.2273 155.676C21.9015 155.835 21.6496 156.062 21.4716 156.358C21.2936 156.65 21.2064 156.992 21.2102 157.386C21.2064 157.788 21.2955 158.138 21.4773 158.438C21.6629 158.737 21.9186 158.97 22.2443 159.136C22.5701 159.303 22.9451 159.386 23.3693 159.386Z" fill="black"/>
<path d="M40 0H65V25H40V0Z" fill="#D3D3D3"/>
<rect width="1.91617" height="4" transform="matrix(0.999999 -0.00163844 0.000241707 1 10.402 0.0463562)" fill="#D9D9D9"/>
<rect width="1.91617" height="4" transform="matrix(0.999999 -0.00163844 0.000241707 1 22.4465 0.0265961)" fill="#D9D9D9"/>
<rect width="1.91617" height="4" transform="matrix(0.999999 -0.00163844 0.000241707 1 34.491 0.00688171)" fill="#D9D9D9"/>
<path d="M36.5 11.0004L39.9969 10.9973L39.9979 14.9973L36.501 15.0004L36.5 11.0004Z" fill="#D9D9D9"/>
<rect width="1.91617" height="4" transform="matrix(0.999999 -0.00163844 0.000241707 1 28.4688 0.0167389)" fill="#D9D9D9"/>
<rect width="1.91617" height="4" transform="matrix(0.999999 -0.00163844 0.000241707 1 16.4243 0.0364838)" fill="#D9D9D9"/>
<rect width="1.91617" height="4" transform="matrix(0.999999 -0.00163844 0.000241707 1 4.37979 0.0562134)" fill="#D9D9D9"/>
<rect width="2.99901" height="4.00167" transform="matrix(0.999999 -0.00154956 0.000248971 1 0 11.003)" fill="#D9D9D9"/>
</svg>
