<svg width="265" height="115" viewBox="0 0 265 115" fill="none" xmlns="http://www.w3.org/2000/svg">
<rect width="265" height="115" fill="#F5F5F5"/>
<rect y="25" width="240" height="90" fill="#00BEFF"/>
<path d="M238.5 26.5H263.5V113.5H238.5V26.5Z" fill="#D9D9D9" stroke="#00BEFF" stroke-width="3"/>
<path d="M240 0H265V25H240V0Z" fill="#D9D9D9"/>
<rect x="1.49779" y="-1.50039" width="24.9974" height="236.959" transform="matrix(-0.00147547 -0.999999 1 -0.000264224 3.04177 28.0577)" fill="#D9D9D9" stroke="#00BEFF" stroke-width="3"/>
<rect width="11.497" height="4" transform="matrix(1 -0.000273074 0.00145024 0.999999 62.4124 0.0463562)" fill="#D9D9D9"/>
<rect width="11.497" height="4" transform="matrix(1 -0.000273074 0.00145024 0.999999 134.679 0.0265961)" fill="#D9D9D9"/>
<rect width="11.497" height="4" transform="matrix(1 -0.000273074 0.00145024 0.999999 206.946 0.00688171)" fill="#D9D9D9"/>
<path d="M219 11.0004L239.983 10.9973L239.988 14.9973L219.006 15.0004L219 11.0004Z" fill="#D9D9D9"/>
<rect width="11.497" height="4" transform="matrix(1 -0.000273074 0.00145024 0.999999 170.813 0.0167389)" fill="#D9D9D9"/>
<rect width="11.497" height="4" transform="matrix(1 -0.000273074 0.00145024 0.999999 98.5459 0.0364838)" fill="#D9D9D9"/>
<rect width="11.497" height="4" transform="matrix(1 -0.000273074 0.00145024 0.999999 26.2789 0.0562134)" fill="#D9D9D9"/>
<rect width="17.995" height="4.00168" transform="matrix(1 -0.000264283 0.00145978 0.999999 0.000183105 11.003)" fill="#D9D9D9"/>
</svg>
