<svg width="185" height="85" viewBox="0 0 185 85" fill="none" xmlns="http://www.w3.org/2000/svg">
<rect width="185" height="85" fill="#F5F5F5"/>
<rect y="25" width="160" height="60" fill="#00BEFF"/>
<rect x="158.5" y="26.5" width="25" height="57" fill="#D3D3D3" stroke="#00BEFF" stroke-width="3"/>
<rect x="1.49852" y="-1.50059" width="24.9973" height="156.972" transform="matrix(-0.000983496 -0.999999 1 -0.000396396 3.02812 28.0581)" fill="#D3D3D3" stroke="#00BEFF" stroke-width="3"/>
<path d="M171.244 60.1591C170.396 60.1591 169.64 60.0133 168.977 59.7216C168.318 59.4261 167.797 59.0208 167.415 58.5057C167.036 57.9867 166.841 57.3883 166.83 56.7102H169.307C169.322 56.9943 169.415 57.2443 169.585 57.4602C169.759 57.6723 169.991 57.8371 170.278 57.9545C170.566 58.072 170.89 58.1307 171.25 58.1307C171.625 58.1307 171.956 58.0644 172.244 57.9318C172.532 57.7992 172.758 57.6155 172.92 57.3807C173.083 57.1458 173.165 56.875 173.165 56.5682C173.165 56.2576 173.078 55.983 172.903 55.7443C172.733 55.5019 172.487 55.3125 172.165 55.1761C171.847 55.0398 171.468 54.9716 171.028 54.9716H169.943V53.1648H171.028C171.4 53.1648 171.727 53.1004 172.011 52.9716C172.299 52.8428 172.523 52.6648 172.682 52.4375C172.841 52.2064 172.92 51.9375 172.92 51.6307C172.92 51.339 172.85 51.0833 172.71 50.8636C172.574 50.6402 172.381 50.4659 172.131 50.3409C171.884 50.2159 171.597 50.1534 171.267 50.1534C170.934 50.1534 170.629 50.214 170.352 50.3352C170.076 50.4527 169.854 50.6212 169.688 50.8409C169.521 51.0606 169.432 51.3182 169.42 51.6136H167.062C167.074 50.9432 167.265 50.3523 167.636 49.8409C168.008 49.3295 168.508 48.9299 169.136 48.642C169.769 48.3504 170.483 48.2045 171.278 48.2045C172.081 48.2045 172.784 48.3504 173.386 48.642C173.989 48.9337 174.456 49.3277 174.79 49.8239C175.127 50.3163 175.294 50.8693 175.29 51.483C175.294 52.1345 175.091 52.678 174.682 53.1136C174.277 53.5492 173.748 53.8258 173.097 53.9432V54.0341C173.953 54.1439 174.604 54.4413 175.051 54.9261C175.502 55.4072 175.725 56.0095 175.722 56.733C175.725 57.3958 175.534 57.9848 175.148 58.5C174.765 59.0152 174.237 59.4205 173.562 59.7159C172.888 60.0114 172.116 60.1591 171.244 60.1591Z" fill="black"/>
<path d="M78.6307 21L75.3011 9.36364H77.9886L79.9148 17.4489H80.0114L82.1364 9.36364H84.4375L86.5568 17.4659H86.6591L88.5852 9.36364H91.2727L87.9432 21H85.5455L83.3295 13.392H83.2386L81.0284 21H78.6307Z" fill="black"/>
<path d="M43.8864 62H42.4091L46.6818 50.3636H48.1364L52.4091 62H50.9318L47.4545 52.2045H47.3636L43.8864 62ZM44.4318 57.4545H50.3864V58.7045H44.4318V57.4545ZM54.0398 62V53.2727H55.3352V54.5909H55.4261C55.5852 54.1591 55.8731 53.8087 56.2898 53.5398C56.7064 53.2708 57.1761 53.1364 57.6989 53.1364C57.7973 53.1364 57.9205 53.1383 58.0682 53.142C58.2159 53.1458 58.3277 53.1515 58.4034 53.1591V54.5227C58.358 54.5114 58.2538 54.4943 58.0909 54.4716C57.9318 54.4451 57.7633 54.4318 57.5852 54.4318C57.161 54.4318 56.7822 54.5208 56.4489 54.6989C56.1193 54.8731 55.858 55.1155 55.6648 55.4261C55.4754 55.733 55.3807 56.0833 55.3807 56.4773V62H54.0398ZM63.3864 62.1818C62.5455 62.1818 61.8201 61.9962 61.2102 61.625C60.6042 61.25 60.1364 60.7273 59.8068 60.0568C59.4811 59.3826 59.3182 58.5985 59.3182 57.7045C59.3182 56.8106 59.4811 56.0227 59.8068 55.3409C60.1364 54.6553 60.5947 54.1212 61.1818 53.7386C61.7727 53.3523 62.4621 53.1591 63.25 53.1591C63.7045 53.1591 64.1534 53.2348 64.5966 53.3864C65.0398 53.5379 65.4432 53.7841 65.8068 54.125C66.1705 54.4621 66.4602 54.9091 66.6761 55.4659C66.892 56.0227 67 56.7083 67 57.5227V58.0909H60.2727V56.9318H65.6364C65.6364 56.4394 65.5379 56 65.3409 55.6136C65.1477 55.2273 64.8712 54.9223 64.5114 54.6989C64.1553 54.4754 63.7348 54.3636 63.25 54.3636C62.7159 54.3636 62.2538 54.4962 61.8636 54.7614C61.4773 55.0227 61.1799 55.3636 60.9716 55.7841C60.7633 56.2045 60.6591 56.6553 60.6591 57.1364V57.9091C60.6591 58.5682 60.7727 59.1269 61 59.5852C61.2311 60.0398 61.5511 60.3864 61.9602 60.625C62.3693 60.8598 62.8447 60.9773 63.3864 60.9773C63.7386 60.9773 64.0568 60.928 64.3409 60.8295C64.6288 60.7273 64.8769 60.5758 65.0852 60.375C65.2936 60.1705 65.4545 59.9167 65.5682 59.6136L66.8636 59.9773C66.7273 60.4167 66.4981 60.803 66.1761 61.1364C65.8542 61.4659 65.4564 61.7235 64.983 61.9091C64.5095 62.0909 63.9773 62.1818 63.3864 62.1818ZM71.608 62.2045C71.0549 62.2045 70.553 62.1004 70.1023 61.892C69.6515 61.6799 69.2936 61.375 69.0284 60.9773C68.7633 60.5758 68.6307 60.0909 68.6307 59.5227C68.6307 59.0227 68.7292 58.6174 68.9261 58.3068C69.1231 57.9924 69.3864 57.7462 69.7159 57.5682C70.0455 57.3902 70.4091 57.2576 70.8068 57.1705C71.2083 57.0795 71.6117 57.0076 72.017 56.9545C72.5473 56.8864 72.9773 56.8352 73.3068 56.8011C73.6402 56.7633 73.8826 56.7008 74.0341 56.6136C74.1894 56.5265 74.267 56.375 74.267 56.1591V56.1136C74.267 55.553 74.1136 55.1174 73.8068 54.8068C73.5038 54.4962 73.0436 54.3409 72.4261 54.3409C71.786 54.3409 71.2841 54.4811 70.9205 54.7614C70.5568 55.0417 70.3011 55.3409 70.1534 55.6591L68.8807 55.2045C69.108 54.6742 69.411 54.2614 69.7898 53.9659C70.1723 53.6667 70.589 53.4583 71.0398 53.3409C71.4943 53.2197 71.9413 53.1591 72.3807 53.1591C72.661 53.1591 72.983 53.1932 73.3466 53.2614C73.714 53.3258 74.0682 53.4602 74.4091 53.6648C74.7538 53.8693 75.0398 54.178 75.267 54.5909C75.4943 55.0038 75.608 55.5568 75.608 56.25V62H74.267V60.8182H74.1989C74.108 61.0076 73.9564 61.2102 73.7443 61.4261C73.5322 61.642 73.25 61.8258 72.8977 61.9773C72.5455 62.1288 72.1155 62.2045 71.608 62.2045ZM71.8125 61C72.3428 61 72.7898 60.8958 73.1534 60.6875C73.5208 60.4792 73.7973 60.2102 73.983 59.8807C74.1723 59.5511 74.267 59.2045 74.267 58.8409V57.6136C74.2102 57.6818 74.0852 57.7443 73.892 57.8011C73.7027 57.8542 73.483 57.9015 73.233 57.9432C72.9867 57.9811 72.7462 58.0152 72.5114 58.0455C72.2803 58.072 72.0928 58.0947 71.9489 58.1136C71.6004 58.1591 71.2746 58.233 70.9716 58.3352C70.6723 58.4337 70.4299 58.5833 70.2443 58.7841C70.0625 58.9811 69.9716 59.25 69.9716 59.5909C69.9716 60.0568 70.1439 60.4091 70.4886 60.6477C70.8371 60.8826 71.2784 61 71.8125 61ZM83.1009 55.1136V53.8864H90.1009V55.1136H83.1009ZM83.1009 58.4773V57.25H90.1009V58.4773H83.1009ZM97.5795 62V60.9773L101.42 56.7727C101.871 56.2803 102.242 55.8523 102.534 55.4886C102.826 55.1212 103.042 54.7765 103.182 54.4545C103.326 54.1288 103.398 53.7879 103.398 53.4318C103.398 53.0227 103.299 52.6686 103.102 52.3693C102.909 52.0701 102.644 51.839 102.307 51.6761C101.97 51.5133 101.591 51.4318 101.17 51.4318C100.723 51.4318 100.333 51.5246 100 51.7102C99.6705 51.892 99.4148 52.1477 99.233 52.4773C99.0549 52.8068 98.9659 53.1932 98.9659 53.6364H97.625C97.625 52.9545 97.7822 52.3561 98.0966 51.8409C98.411 51.3258 98.839 50.9242 99.3807 50.6364C99.9261 50.3485 100.538 50.2045 101.216 50.2045C101.898 50.2045 102.502 50.3485 103.028 50.6364C103.555 50.9242 103.968 51.3125 104.267 51.8011C104.566 52.2898 104.716 52.8333 104.716 53.4318C104.716 53.8598 104.638 54.2784 104.483 54.6875C104.331 55.0928 104.066 55.5455 103.688 56.0455C103.312 56.5417 102.792 57.1477 102.125 57.8636L99.5114 60.6591V60.75H104.92V62H97.5795ZM106.744 59.6136V58.4545L111.858 50.3636H112.699V52.1591H112.131L108.267 58.2727V58.3636H115.153V59.6136H106.744ZM112.222 62V59.2614V58.7216V50.3636H113.562V62H112.222Z" fill="black"/>
<rect x="160" width="25" height="25" fill="#D3D3D3"/>
<rect width="7.66468" height="4" transform="matrix(1 -0.000409611 0.000966828 0.999999 41.6082 0.0463562)" fill="#D9D9D9"/>
<rect width="7.66468" height="4" transform="matrix(1 -0.000409611 0.000966828 0.999999 89.7862 0.0265961)" fill="#D9D9D9"/>
<rect width="7.66468" height="4" transform="matrix(1 -0.000409611 0.000966828 0.999999 137.964 0.00688171)" fill="#D9D9D9"/>
<rect width="7.66468" height="4" transform="matrix(1 -0.000409611 0.000966828 0.999999 152.323 11.0004)" fill="#D9D9D9"/>
<rect width="7.66468" height="4" transform="matrix(1 -0.000409611 0.000966828 0.999999 113.875 0.0167389)" fill="#D9D9D9"/>
<rect width="7.66468" height="4" transform="matrix(1 -0.000409611 0.000966828 0.999999 65.6972 0.0364838)" fill="#D9D9D9"/>
<rect width="7.66468" height="4" transform="matrix(1 -0.000409611 0.000966828 0.999999 17.5192 0.0562134)" fill="#D9D9D9"/>
<rect width="7.66468" height="4" transform="matrix(1 -0.00038739 0.000995882 0.999999 0.0098877 10.0634)" fill="#D9D9D9"/>
</svg>
