<svg width="454" height="110" viewBox="0 0 454 110" fill="none" xmlns="http://www.w3.org/2000/svg">
<rect width="454" height="110" fill="#F5F5F5"/>
<rect width="428" height="85" fill="#00BEFF"/>
<path d="M1.5 108.5L1.5 83.5L426.5 83.5V108.5L1.5 108.5Z" fill="#D9D9D9" stroke="#00BEFF" stroke-width="3"/>
<path d="M428 85H453V110H428V85Z" fill="#D9D9D9"/>
<rect x="1.50112" y="1.49922" width="24.9973" height="81.9854" transform="matrix(1 -0.000522561 0.000746044 1 424.999 0.0154181)" fill="#D9D9D9" stroke="#00BEFF" stroke-width="3"/>
<rect width="4.07186" height="4" transform="matrix(0.000771033 1 -1 0.000513628 453.014 22.1044)" fill="#D9D9D9"/>
<rect width="4.07186" height="4" transform="matrix(0.000771033 1 -1 0.000513628 453.034 47.6989)" fill="#D9D9D9"/>
<rect width="4.07186" height="4" transform="matrix(0.000771033 1 -1 0.000513628 453.054 73.2935)" fill="#D9D9D9"/>
<path d="M442.06 77.5625L442.063 84.9938L438.063 84.9959L438.06 77.5646L442.06 77.5625Z" fill="#D9D9D9"/>
<rect width="4.07186" height="4" transform="matrix(0.000771033 1 -1 0.000513628 453.044 60.4962)" fill="#D9D9D9"/>
<rect width="4.07186" height="4" transform="matrix(0.000771033 1 -1 0.000513628 453.024 34.9016)" fill="#D9D9D9"/>
<rect width="4.07186" height="4" transform="matrix(0.000771033 1 -1 0.000513628 453.005 9.30708)" fill="#D9D9D9"/>
<rect width="6.37322" height="4.00167" transform="matrix(0.000746211 1 -1 0.000517005 442.058 4.57764e-05)" fill="#D9D9D9"/>
</svg>
