<svg width="173" height="115" viewBox="0 0 173 115" fill="none" xmlns="http://www.w3.org/2000/svg">
<rect width="173" height="115" fill="#F5F5F5"/>
<rect y="25" width="150" height="90" fill="#00BEFF"/>
<rect x="146.5" y="26.5" width="25" height="87" fill="#D3D3D3" stroke="#00BEFF" stroke-width="3"/>
<rect x="1.5" y="26.5" width="25" height="145" transform="rotate(-90 1.5 26.5)" fill="#D3D3D3" stroke="#00BEFF" stroke-width="3"/>
<path d="M158.555 77.1989C157.495 77.1989 156.55 77.0166 155.722 76.652C154.898 76.2827 154.247 75.776 153.768 75.1321C153.295 74.4834 153.051 73.7353 153.037 72.8878H156.134C156.152 73.2429 156.268 73.5554 156.482 73.8253C156.699 74.0904 156.988 74.2964 157.348 74.4432C157.708 74.59 158.113 74.6634 158.562 74.6634C159.031 74.6634 159.446 74.5805 159.805 74.4148C160.165 74.2491 160.447 74.0194 160.651 73.7259C160.854 73.4323 160.956 73.0937 160.956 72.7102C160.956 72.322 160.847 71.9787 160.629 71.6804C160.416 71.3774 160.108 71.1406 159.706 70.9702C159.308 70.7997 158.835 70.7145 158.286 70.7145H156.929V68.456H158.286C158.75 68.456 159.159 68.3755 159.514 68.2145C159.874 68.0535 160.153 67.831 160.352 67.5469C160.551 67.258 160.651 66.9219 160.651 66.5384C160.651 66.1738 160.563 65.8542 160.388 65.5795C160.217 65.3002 159.976 65.0824 159.663 64.9261C159.356 64.7699 158.996 64.6918 158.584 64.6918C158.167 64.6918 157.786 64.7675 157.44 64.919C157.095 65.0658 156.818 65.2765 156.609 65.5511C156.401 65.8258 156.29 66.1477 156.276 66.517H153.328C153.342 65.679 153.581 64.9403 154.045 64.3011C154.509 63.6619 155.134 63.1624 155.92 62.8026C156.711 62.438 157.604 62.2557 158.598 62.2557C159.602 62.2557 160.48 62.438 161.233 62.8026C161.986 63.1671 162.571 63.6596 162.987 64.2798C163.409 64.8954 163.617 65.5866 163.612 66.3537C163.617 67.1681 163.364 67.8475 162.852 68.392C162.346 68.9366 161.685 69.2822 160.871 69.429V69.5426C161.941 69.6799 162.755 70.0516 163.314 70.6577C163.877 71.259 164.157 72.0118 164.152 72.9162C164.157 73.7448 163.918 74.4811 163.435 75.125C162.956 75.7689 162.296 76.2756 161.453 76.6449C160.61 77.0142 159.644 77.1989 158.555 77.1989Z" fill="black"/>
<path d="M70.6307 19L67.3011 7.36364H69.9886L71.9148 15.4489H72.0114L74.1364 7.36364H76.4375L78.5568 15.4659H78.6591L80.5852 7.36364H83.2727L79.9432 19H77.5455L75.3295 11.392H75.2386L73.0284 19H70.6307Z" fill="black"/>
<path d="M39.8864 75H38.4091L42.6818 63.3636H44.1364L48.4091 75H46.9318L43.4545 65.2045H43.3636L39.8864 75ZM40.4318 70.4545H46.3864V71.7045H40.4318V70.4545ZM50.0398 75V66.2727H51.3352V67.5909H51.4261C51.5852 67.1591 51.8731 66.8087 52.2898 66.5398C52.7064 66.2708 53.1761 66.1364 53.6989 66.1364C53.7973 66.1364 53.9205 66.1383 54.0682 66.142C54.2159 66.1458 54.3277 66.1515 54.4034 66.1591V67.5227C54.358 67.5114 54.2538 67.4943 54.0909 67.4716C53.9318 67.4451 53.7633 67.4318 53.5852 67.4318C53.161 67.4318 52.7822 67.5208 52.4489 67.6989C52.1193 67.8731 51.858 68.1155 51.6648 68.4261C51.4754 68.733 51.3807 69.0833 51.3807 69.4773V75H50.0398ZM59.3864 75.1818C58.5455 75.1818 57.8201 74.9962 57.2102 74.625C56.6042 74.25 56.1364 73.7273 55.8068 73.0568C55.4811 72.3826 55.3182 71.5985 55.3182 70.7045C55.3182 69.8106 55.4811 69.0227 55.8068 68.3409C56.1364 67.6553 56.5947 67.1212 57.1818 66.7386C57.7727 66.3523 58.4621 66.1591 59.25 66.1591C59.7045 66.1591 60.1534 66.2348 60.5966 66.3864C61.0398 66.5379 61.4432 66.7841 61.8068 67.125C62.1705 67.4621 62.4602 67.9091 62.6761 68.4659C62.892 69.0227 63 69.7083 63 70.5227V71.0909H56.2727V69.9318H61.6364C61.6364 69.4394 61.5379 69 61.3409 68.6136C61.1477 68.2273 60.8712 67.9223 60.5114 67.6989C60.1553 67.4754 59.7348 67.3636 59.25 67.3636C58.7159 67.3636 58.2538 67.4962 57.8636 67.7614C57.4773 68.0227 57.1799 68.3636 56.9716 68.7841C56.7633 69.2045 56.6591 69.6553 56.6591 70.1364V70.9091C56.6591 71.5682 56.7727 72.1269 57 72.5852C57.2311 73.0398 57.5511 73.3864 57.9602 73.625C58.3693 73.8598 58.8447 73.9773 59.3864 73.9773C59.7386 73.9773 60.0568 73.928 60.3409 73.8295C60.6288 73.7273 60.8769 73.5758 61.0852 73.375C61.2936 73.1705 61.4545 72.9167 61.5682 72.6136L62.8636 72.9773C62.7273 73.4167 62.4981 73.803 62.1761 74.1364C61.8542 74.4659 61.4564 74.7235 60.983 74.9091C60.5095 75.0909 59.9773 75.1818 59.3864 75.1818ZM67.608 75.2045C67.0549 75.2045 66.553 75.1004 66.1023 74.892C65.6515 74.6799 65.2936 74.375 65.0284 73.9773C64.7633 73.5758 64.6307 73.0909 64.6307 72.5227C64.6307 72.0227 64.7292 71.6174 64.9261 71.3068C65.1231 70.9924 65.3864 70.7462 65.7159 70.5682C66.0455 70.3902 66.4091 70.2576 66.8068 70.1705C67.2083 70.0795 67.6117 70.0076 68.017 69.9545C68.5473 69.8864 68.9773 69.8352 69.3068 69.8011C69.6402 69.7633 69.8826 69.7008 70.0341 69.6136C70.1894 69.5265 70.267 69.375 70.267 69.1591V69.1136C70.267 68.553 70.1136 68.1174 69.8068 67.8068C69.5038 67.4962 69.0436 67.3409 68.4261 67.3409C67.786 67.3409 67.2841 67.4811 66.9205 67.7614C66.5568 68.0417 66.3011 68.3409 66.1534 68.6591L64.8807 68.2045C65.108 67.6742 65.411 67.2614 65.7898 66.9659C66.1723 66.6667 66.589 66.4583 67.0398 66.3409C67.4943 66.2197 67.9413 66.1591 68.3807 66.1591C68.661 66.1591 68.983 66.1932 69.3466 66.2614C69.714 66.3258 70.0682 66.4602 70.4091 66.6648C70.7538 66.8693 71.0398 67.178 71.267 67.5909C71.4943 68.0038 71.608 68.5568 71.608 69.25V75H70.267V73.8182H70.1989C70.108 74.0076 69.9564 74.2102 69.7443 74.4261C69.5322 74.642 69.25 74.8258 68.8977 74.9773C68.5455 75.1288 68.1155 75.2045 67.608 75.2045ZM67.8125 74C68.3428 74 68.7898 73.8958 69.1534 73.6875C69.5208 73.4792 69.7973 73.2102 69.983 72.8807C70.1723 72.5511 70.267 72.2045 70.267 71.8409V70.6136C70.2102 70.6818 70.0852 70.7443 69.892 70.8011C69.7027 70.8542 69.483 70.9015 69.233 70.9432C68.9867 70.9811 68.7462 71.0152 68.5114 71.0455C68.2803 71.072 68.0928 71.0947 67.9489 71.1136C67.6004 71.1591 67.2746 71.233 66.9716 71.3352C66.6723 71.4337 66.4299 71.5833 66.2443 71.7841C66.0625 71.9811 65.9716 72.25 65.9716 72.5909C65.9716 73.0568 66.1439 73.4091 66.4886 73.6477C66.8371 73.8826 67.2784 74 67.8125 74ZM79.1009 68.1136V66.8864H86.1009V68.1136H79.1009ZM79.1009 71.4773V70.25H86.1009V71.4773H79.1009ZM97.6705 63.3636V75H96.2614V64.8409H96.1932L93.3523 66.7273V65.2955L96.2614 63.3636H97.6705ZM104.653 75.1591C103.987 75.1591 103.386 75.0265 102.852 74.7614C102.318 74.4962 101.89 74.1326 101.568 73.6705C101.246 73.2083 101.07 72.6818 101.04 72.0909H102.403C102.456 72.6174 102.695 73.053 103.119 73.3977C103.547 73.7386 104.059 73.9091 104.653 73.9091C105.131 73.9091 105.555 73.7973 105.926 73.5739C106.301 73.3504 106.595 73.0436 106.807 72.6534C107.023 72.2595 107.131 71.8144 107.131 71.3182C107.131 70.8106 107.019 70.358 106.795 69.9602C106.576 69.5587 106.273 69.2424 105.886 69.0114C105.5 68.7803 105.059 68.6629 104.562 68.6591C104.206 68.6553 103.841 68.7102 103.466 68.8239C103.091 68.9337 102.782 69.0758 102.54 69.25L101.222 69.0909L101.926 63.3636H107.972V64.6136H103.108L102.699 68.0455H102.767C103.006 67.8561 103.305 67.6989 103.665 67.5739C104.025 67.4489 104.4 67.3864 104.79 67.3864C105.502 67.3864 106.136 67.5568 106.693 67.8977C107.254 68.2348 107.693 68.697 108.011 69.2841C108.333 69.8712 108.494 70.5417 108.494 71.2955C108.494 72.0379 108.328 72.7008 107.994 73.2841C107.665 73.8636 107.21 74.322 106.631 74.6591C106.051 74.9924 105.392 75.1591 104.653 75.1591Z" fill="black"/>
<rect x="148" width="25" height="25" fill="#D3D3D3"/>
<rect x="38" width="7" height="4" fill="#D9D9D9"/>
<rect x="82" width="7" height="4" fill="#D9D9D9"/>
<rect x="126" width="7" height="4" fill="#D9D9D9"/>
<rect x="143" y="11" width="7" height="4" fill="#D9D9D9"/>
<rect x="104" width="7" height="4" fill="#D9D9D9"/>
<rect x="60" width="7" height="4" fill="#D9D9D9"/>
<rect x="16" width="7" height="4" fill="#D9D9D9"/>
<rect y="10" width="7" height="4" fill="#D9D9D9"/>
</svg>
