<svg width="185" height="185" viewBox="0 0 185 185" fill="none" xmlns="http://www.w3.org/2000/svg">
<rect width="185" height="185" fill="#F5F5F5"/>
<rect y="25" width="160" height="160" fill="#00BEFF"/>
<rect x="158.5" y="26.5" width="25" height="157" fill="#D3D3D3" stroke="#00BEFF" stroke-width="3"/>
<rect x="1.49852" y="-1.50059" width="24.9973" height="156.972" transform="matrix(-0.000983496 -0.999999 1 -0.000396396 3.02812 28.0581)" fill="#D3D3D3" stroke="#00BEFF" stroke-width="3"/>
<path d="M171.244 110.159C170.396 110.159 169.64 110.013 168.977 109.722C168.318 109.426 167.797 109.021 167.415 108.506C167.036 107.987 166.841 107.388 166.83 106.71H169.307C169.322 106.994 169.415 107.244 169.585 107.46C169.759 107.672 169.991 107.837 170.278 107.955C170.566 108.072 170.89 108.131 171.25 108.131C171.625 108.131 171.956 108.064 172.244 107.932C172.532 107.799 172.758 107.616 172.92 107.381C173.083 107.146 173.165 106.875 173.165 106.568C173.165 106.258 173.078 105.983 172.903 105.744C172.733 105.502 172.487 105.312 172.165 105.176C171.847 105.04 171.468 104.972 171.028 104.972H169.943V103.165H171.028C171.4 103.165 171.727 103.1 172.011 102.972C172.299 102.843 172.523 102.665 172.682 102.438C172.841 102.206 172.92 101.938 172.92 101.631C172.92 101.339 172.85 101.083 172.71 100.864C172.574 100.64 172.381 100.466 172.131 100.341C171.884 100.216 171.597 100.153 171.267 100.153C170.934 100.153 170.629 100.214 170.352 100.335C170.076 100.453 169.854 100.621 169.688 100.841C169.521 101.061 169.432 101.318 169.42 101.614H167.062C167.074 100.943 167.265 100.352 167.636 99.8409C168.008 99.3295 168.508 98.9299 169.136 98.642C169.769 98.3504 170.483 98.2045 171.278 98.2045C172.081 98.2045 172.784 98.3504 173.386 98.642C173.989 98.9337 174.456 99.3277 174.79 99.8239C175.127 100.316 175.294 100.869 175.29 101.483C175.294 102.134 175.091 102.678 174.682 103.114C174.277 103.549 173.748 103.826 173.097 103.943V104.034C173.953 104.144 174.604 104.441 175.051 104.926C175.502 105.407 175.725 106.009 175.722 106.733C175.725 107.396 175.534 107.985 175.148 108.5C174.765 109.015 174.237 109.42 173.562 109.716C172.888 110.011 172.116 110.159 171.244 110.159Z" fill="black"/>
<path d="M78.6307 21L75.3011 9.36364H77.9886L79.9148 17.4489H80.0114L82.1364 9.36364H84.4375L86.5568 17.4659H86.6591L88.5852 9.36364H91.2727L87.9432 21H85.5455L83.3295 13.392H83.2386L81.0284 21H78.6307Z" fill="black"/>
<path d="M50.8864 110H49.4091L53.6818 98.3636H55.1364L59.4091 110H57.9318L54.4545 100.205H54.3636L50.8864 110ZM51.4318 105.455H57.3864V106.705H51.4318V105.455ZM61.0398 110V101.273H62.3352V102.591H62.4261C62.5852 102.159 62.8731 101.809 63.2898 101.54C63.7064 101.271 64.1761 101.136 64.6989 101.136C64.7973 101.136 64.9205 101.138 65.0682 101.142C65.2159 101.146 65.3277 101.152 65.4034 101.159V102.523C65.358 102.511 65.2538 102.494 65.0909 102.472C64.9318 102.445 64.7633 102.432 64.5852 102.432C64.161 102.432 63.7822 102.521 63.4489 102.699C63.1193 102.873 62.858 103.116 62.6648 103.426C62.4754 103.733 62.3807 104.083 62.3807 104.477V110H61.0398ZM70.3864 110.182C69.5455 110.182 68.8201 109.996 68.2102 109.625C67.6042 109.25 67.1364 108.727 66.8068 108.057C66.4811 107.383 66.3182 106.598 66.3182 105.705C66.3182 104.811 66.4811 104.023 66.8068 103.341C67.1364 102.655 67.5947 102.121 68.1818 101.739C68.7727 101.352 69.4621 101.159 70.25 101.159C70.7045 101.159 71.1534 101.235 71.5966 101.386C72.0398 101.538 72.4432 101.784 72.8068 102.125C73.1705 102.462 73.4602 102.909 73.6761 103.466C73.892 104.023 74 104.708 74 105.523V106.091H67.2727V104.932H72.6364C72.6364 104.439 72.5379 104 72.3409 103.614C72.1477 103.227 71.8712 102.922 71.5114 102.699C71.1553 102.475 70.7348 102.364 70.25 102.364C69.7159 102.364 69.2538 102.496 68.8636 102.761C68.4773 103.023 68.1799 103.364 67.9716 103.784C67.7633 104.205 67.6591 104.655 67.6591 105.136V105.909C67.6591 106.568 67.7727 107.127 68 107.585C68.2311 108.04 68.5511 108.386 68.9602 108.625C69.3693 108.86 69.8447 108.977 70.3864 108.977C70.7386 108.977 71.0568 108.928 71.3409 108.83C71.6288 108.727 71.8769 108.576 72.0852 108.375C72.2936 108.17 72.4545 107.917 72.5682 107.614L73.8636 107.977C73.7273 108.417 73.4981 108.803 73.1761 109.136C72.8542 109.466 72.4564 109.723 71.983 109.909C71.5095 110.091 70.9773 110.182 70.3864 110.182ZM78.608 110.205C78.0549 110.205 77.553 110.1 77.1023 109.892C76.6515 109.68 76.2936 109.375 76.0284 108.977C75.7633 108.576 75.6307 108.091 75.6307 107.523C75.6307 107.023 75.7292 106.617 75.9261 106.307C76.1231 105.992 76.3864 105.746 76.7159 105.568C77.0455 105.39 77.4091 105.258 77.8068 105.17C78.2083 105.08 78.6117 105.008 79.017 104.955C79.5473 104.886 79.9773 104.835 80.3068 104.801C80.6402 104.763 80.8826 104.701 81.0341 104.614C81.1894 104.527 81.267 104.375 81.267 104.159V104.114C81.267 103.553 81.1136 103.117 80.8068 102.807C80.5038 102.496 80.0436 102.341 79.4261 102.341C78.786 102.341 78.2841 102.481 77.9205 102.761C77.5568 103.042 77.3011 103.341 77.1534 103.659L75.8807 103.205C76.108 102.674 76.411 102.261 76.7898 101.966C77.1723 101.667 77.589 101.458 78.0398 101.341C78.4943 101.22 78.9413 101.159 79.3807 101.159C79.661 101.159 79.983 101.193 80.3466 101.261C80.714 101.326 81.0682 101.46 81.4091 101.665C81.7538 101.869 82.0398 102.178 82.267 102.591C82.4943 103.004 82.608 103.557 82.608 104.25V110H81.267V108.818H81.1989C81.108 109.008 80.9564 109.21 80.7443 109.426C80.5322 109.642 80.25 109.826 79.8977 109.977C79.5455 110.129 79.1155 110.205 78.608 110.205ZM78.8125 109C79.3428 109 79.7898 108.896 80.1534 108.688C80.5208 108.479 80.7973 108.21 80.983 107.881C81.1723 107.551 81.267 107.205 81.267 106.841V105.614C81.2102 105.682 81.0852 105.744 80.892 105.801C80.7027 105.854 80.483 105.902 80.233 105.943C79.9867 105.981 79.7462 106.015 79.5114 106.045C79.2803 106.072 79.0928 106.095 78.9489 106.114C78.6004 106.159 78.2746 106.233 77.9716 106.335C77.6723 106.434 77.4299 106.583 77.2443 106.784C77.0625 106.981 76.9716 107.25 76.9716 107.591C76.9716 108.057 77.1439 108.409 77.4886 108.648C77.8371 108.883 78.2784 109 78.8125 109ZM90.1009 103.114V101.886H97.1009V103.114H90.1009ZM90.1009 106.477V105.25H97.1009V106.477H90.1009ZM108.284 98.2045C108.761 98.2083 109.239 98.2992 109.716 98.4773C110.193 98.6553 110.629 98.9508 111.023 99.3636C111.417 99.7727 111.733 100.331 111.972 101.04C112.21 101.748 112.33 102.636 112.33 103.705C112.33 104.739 112.231 105.657 112.034 106.46C111.841 107.259 111.561 107.934 111.193 108.483C110.83 109.032 110.386 109.449 109.864 109.733C109.345 110.017 108.758 110.159 108.102 110.159C107.451 110.159 106.869 110.03 106.358 109.773C105.85 109.511 105.434 109.15 105.108 108.688C104.786 108.222 104.58 107.682 104.489 107.068H105.875C106 107.602 106.248 108.044 106.619 108.392C106.994 108.737 107.489 108.909 108.102 108.909C109 108.909 109.708 108.517 110.227 107.733C110.75 106.949 111.011 105.841 111.011 104.409H110.92C110.708 104.727 110.456 105.002 110.165 105.233C109.873 105.464 109.549 105.642 109.193 105.767C108.837 105.892 108.458 105.955 108.057 105.955C107.39 105.955 106.778 105.79 106.222 105.46C105.669 105.127 105.225 104.67 104.892 104.091C104.562 103.508 104.398 102.841 104.398 102.091C104.398 101.379 104.557 100.727 104.875 100.136C105.197 99.5417 105.648 99.0682 106.227 98.7159C106.811 98.3636 107.496 98.1932 108.284 98.2045ZM108.284 99.4545C107.807 99.4545 107.377 99.5739 106.994 99.8125C106.616 100.047 106.314 100.366 106.091 100.767C105.871 101.165 105.761 101.606 105.761 102.091C105.761 102.576 105.867 103.017 106.08 103.415C106.295 103.809 106.589 104.123 106.96 104.358C107.335 104.589 107.761 104.705 108.239 104.705C108.598 104.705 108.934 104.634 109.244 104.494C109.555 104.35 109.826 104.155 110.057 103.909C110.292 103.659 110.475 103.377 110.608 103.062C110.741 102.744 110.807 102.413 110.807 102.068C110.807 101.614 110.697 101.187 110.477 100.79C110.261 100.392 109.962 100.07 109.58 99.8239C109.201 99.5777 108.769 99.4545 108.284 99.4545Z" fill="black"/>
<rect x="160" width="25" height="25" fill="#D3D3D3"/>
<rect width="7.66468" height="4" transform="matrix(1 -0.000409611 0.000966828 0.999999 41.6082 0.0463562)" fill="#D9D9D9"/>
<rect width="7.66468" height="4" transform="matrix(1 -0.000409611 0.000966828 0.999999 89.7862 0.0265961)" fill="#D9D9D9"/>
<rect width="7.66468" height="4" transform="matrix(1 -0.000409611 0.000966828 0.999999 137.964 0.00688171)" fill="#D9D9D9"/>
<rect width="7.66468" height="4" transform="matrix(1 -0.000409611 0.000966828 0.999999 152.323 11.0004)" fill="#D9D9D9"/>
<rect width="7.66468" height="4" transform="matrix(1 -0.000409611 0.000966828 0.999999 113.875 0.0167389)" fill="#D9D9D9"/>
<rect width="7.66468" height="4" transform="matrix(1 -0.000409611 0.000966828 0.999999 65.6972 0.0364838)" fill="#D9D9D9"/>
<rect width="7.66468" height="4" transform="matrix(1 -0.000409611 0.000966828 0.999999 17.5192 0.0562134)" fill="#D9D9D9"/>
<rect width="7.66468" height="4" transform="matrix(1 -0.00038739 0.000995882 0.999999 0.0098877 10.0634)" fill="#D9D9D9"/>
</svg>
